<?xml version="1.0" standalone="no"?>
<!DOCTYPE svg PUBLIC "-//W3C//DTD SVG 20010904//EN"
 "http://www.w3.org/TR/2001/REC-SVG-20010904/DTD/svg10.dtd">
<svg version="1.0" xmlns="http://www.w3.org/2000/svg"
 width="700.000000pt" height="700.000000pt" viewBox="0 0 700.000000 700.000000"
 preserveAspectRatio="xMidYMid meet">
<metadata>
Created by potrace 1.11, written by Peter Selinger 2001-2013
</metadata>
<g transform="translate(0.000000,700.000000) scale(0.100000,-0.100000)"
fill="#000000" stroke="none">
<path d="M2954 6290 c-374 -31 -719 -127 -1039 -290 -208 -105 -350 -197 -553
-357 -21 -17 -25 -40 -57 -303 -19 -157 -41 -332 -50 -390 -8 -58 -15 -111
-15 -117 0 -10 139 -13 665 -13 l664 0 230 229 c306 304 430 407 896 741 110
79 254 184 319 234 l119 90 -44 18 c-63 27 -258 83 -374 107 -231 47 -551 69
-761 51z"/>
<path d="M4080 5960 c-509 -361 -709 -527 -1028 -851 -134 -136 -251 -257
-260 -270 l-15 -22 486 6 c373 5 510 10 587 23 56 8 104 14 106 11 3 -3 -64
-57 -148 -120 -140 -106 -158 -117 -218 -129 -47 -9 -199 -12 -549 -13 l-483
0 -66 -70 c-173 -186 -298 -355 -417 -560 -67 -117 -252 -483 -305 -607 l-38
-87 31 -6 c104 -17 626 -32 675 -19 l22 6 0 540 0 539 209 -3 209 -3 44 -30
c83 -59 137 -159 184 -344 38 -148 54 -297 61 -556 16 -643 -81 -1052 -270
-1144 -37 -18 -62 -21 -165 -21 l-122 0 0 -710 0 -710 -75 0 -75 0 0 1200 c0
684 -4 1200 -9 1200 -5 0 -73 -48 -152 -106 l-144 -105 -115 6 c-63 3 -177 11
-253 17 -80 6 -142 7 -146 2 -13 -14 -72 -192 -162 -489 -173 -570 -193 -672
-194 -996 l0 -225 -179 -93 c-98 -50 -181 -89 -184 -86 -12 12 18 501 38 604
49 256 238 876 383 1252 l25 67 -41 6 c-52 7 -281 24 -446 34 -117 7 -124 6
-136 -13 -7 -11 -40 -74 -74 -140 -73 -139 -181 -308 -290 -450 -43 -55 -80
-105 -84 -111 -14 -24 75 -327 155 -528 276 -695 786 -1270 1418 -1600 149
-78 358 -163 524 -213 l121 -38 612 -3 612 -3 98 25 c453 115 906 368 1245
694 l87 84 -29 25 c-29 24 -30 27 -30 120 l0 96 43 -46 c52 -56 88 -67 125
-40 33 25 50 79 51 158 1 109 -10 133 -93 210 -87 82 -102 111 -117 242 -21
177 15 374 79 423 34 27 91 26 133 -3 l34 -23 3 -94 2 -95 -22 27 c-45 52
-101 63 -136 25 -44 -46 -54 -196 -18 -266 9 -17 40 -49 69 -70 91 -69 116
-131 126 -311 l6 -125 65 88 c334 451 544 996 616 1597 21 175 23 539 5 715
-82 780 -402 1466 -931 1995 -192 193 -381 339 -613 475 -94 54 -278 145 -294
145 -5 0 -78 -50 -163 -110z m-580 -2135 l0 -375 140 0 140 0 0 -165 0 -165
-140 0 -140 0 0 -792 c0 -436 5 -848 10 -916 16 -206 45 -242 195 -242 l75 0
0 -180 0 -180 -82 0 c-46 0 -100 5 -120 10 -110 31 -168 157 -199 435 -7 62
-13 433 -16 983 l-5 882 -49 0 -49 0 0 165 0 165 50 0 50 0 0 375 0 375 70 0
70 0 0 -375z m1100 -2200 l0 -815 -30 0 -30 0 -1 78 0 77 -19 -58 c-60 -189
-158 -164 -209 53 -61 254 -50 758 21 947 54 145 132 139 184 -14 l23 -68 1
308 0 307 30 0 30 0 0 -815z m-521 363 c60 -55 96 -198 112 -437 22 -353 -29
-680 -116 -749 -79 -62 -146 12 -188 208 -18 83 -21 130 -21 375 -1 290 6 363
46 493 35 116 109 165 167 110z m851 -8 c79 -85 124 -413 101 -742 -17 -250
-51 -381 -113 -433 -82 -69 -151 12 -195 232 -14 70 -18 140 -18 348 0 274 10
379 47 492 42 127 116 170 178 103z"/>
<path d="M4396 1828 c-48 -74 -76 -348 -58 -576 14 -173 25 -229 56 -274 61
-91 113 -4 137 228 22 209 -4 531 -49 608 -23 40 -64 47 -86 14z"/>
<path d="M3992 1829 c-49 -52 -78 -270 -68 -514 9 -225 36 -338 87 -366 30
-15 66 21 84 86 51 180 45 615 -11 754 -24 61 -59 76 -92 40z"/>
<path d="M4837 1832 c-50 -55 -71 -183 -71 -432 0 -252 22 -388 69 -436 30
-30 39 -30 65 -2 51 55 74 222 68 487 -4 135 -10 218 -22 266 -28 119 -68 162
-109 117z"/>
<path d="M973 5253 c-111 -130 -293 -391 -293 -420 0 -10 34 -13 144 -13 l143
0 6 48 c3 26 17 134 31 241 14 107 24 196 22 198 -2 2 -26 -22 -53 -54z"/>
<path d="M530 4561 c-72 -143 -170 -420 -221 -625 -50 -205 -102 -556 -85
-574 4 -4 91 -8 192 -10 l184 -3 21 48 c34 79 106 296 144 431 41 150 117 487
140 622 8 52 18 107 21 123 l6 27 -191 0 -191 0 -20 -39z"/>
<path d="M1191 4545 c-6 -27 -24 -124 -41 -215 -63 -333 -127 -561 -236 -844
-30 -76 -53 -140 -51 -142 1 -1 101 -10 222 -19 121 -9 255 -20 298 -24 51 -5
81 -3 86 3 4 6 51 99 104 206 202 411 355 639 610 908 61 64 125 132 142 150
l30 33 -577 -3 -578 -3 -9 -50z"/>
<path d="M2610 3281 l0 -661 109 0 c95 0 112 3 142 23 47 31 95 130 121 252
20 90 22 130 22 385 1 254 -2 295 -21 382 -25 115 -64 206 -105 245 -28 27
-33 28 -149 31 l-119 4 0 -661z"/>
<path d="M210 3052 c0 -80 18 -315 29 -375 l7 -42 43 65 c37 58 211 398 211
414 0 3 -65 6 -145 6 l-145 0 0 -68z"/>
</g>
</svg>
